PathFileType  4	(X/Y/Z) C:\Users\antoi\Documents\MyRepositories\mobilecap\ResultsAnalysis
DataRate	CameraRate	NumFrames	NumMarkers	Units	OrigDataRate	OrigDataStartFrame	OrigNumFrames
100.0	100.0	4	51	mm	100.0	69	136
Frame#	Time	r_knee			r_shank_antsup			r_ankle			r_calc			r_5meta			r_toe			L_knee			L_shank_antsup			L_ankle			L_calc			L_5meta			L_toe			r_sh2			r_sh3			r_sh4			L_sh2			L_sh3			r_thigh1			r_thigh2			r_thigh3			r_thigh4			r_thigh5			L_thigh1			L_thigh2			L_thigh3			L_thigh4			r.ASIS			r.PSIS			L.ASIS			L.PSIS			C7			R_Shoulder			L_Shoulder			R_Sternum			L_Sternum			R_humerus			R_elbow_med			R_elbow_lat			R_forearm			R_wrist_radius			R_wrist_ulna			L_humerus			L_elbow_med			L_elbow_lat			L_forearm			L_wrist_radius			L_wrist_ulna			R_HJC			L_HJC			R_HJC_reg			L_HJC_reg			
		X1	Y1	Z1	X2	Y2	Z2	X3	Y3	Z3	X4	Y4	Z4	X5	Y5	Z5	X6	Y6	Z6	X7	Y7	Z7	X8	Y8	Z8	X9	Y9	Z9	X10	Y10	Z10	X11	Y11	Z11	X12	Y12	Z12	X13	Y13	Z13	X14	Y14	Z14	X15	Y15	Z15	X16	Y16	Z16	X17	Y17	Z17	X18	Y18	Z18	X19	Y19	Z19	X20	Y20	Z20	X21	Y21	Z21	X22	Y22	Z22	X23	Y23	Z23	X24	Y24	Z24	X25	Y25	Z25	X26	Y26	Z26	X27	Y27	Z27	X28	Y28	Z28	X29	Y29	Z29	X30	Y30	Z30	X31	Y31	Z31	X32	Y32	Z32	X33	Y33	Z33	X34	Y34	Z34	X35	Y35	Z35	X36	Y36	Z36	X37	Y37	Z37	X38	Y38	Z38	X39	Y39	Z39	X40	Y40	Z40	X41	Y41	Z41	X42	Y42	Z42	X43	Y43	Z43	X44	Y44	Z44	X45	Y45	Z45	X46	Y46	Z46	X47	Y47	Z47	X48	Y48	Z48	X49	Y49	Z49	X50	Y50	Z50	X51	Y51	Z51	

69	0.68000000	565.52512	468.71692	-96.74272	559.52501	393.66083	-94.07537	312.39753	169.76209	-145.76954	257.96254	192.04651	-194.43766	347.60285	53.94330	-132.10500	397.26109	48.89971	-181.22914	788.10803	464.23375	-360.06220	838.49794	390.28960	-333.13321	816.72799	84.30145	-331.59836	757.18485	49.50611	-294.43463	926.15294	44.03325	-345.77115	968.49931	65.23831	-285.05133	475.98045	318.51012	-98.59965	508.32600	448.90294	-80.78922	416.36055	377.51159	-93.09443	767.76699	393.60079	-390.65426	778.16631	271.40828	-391.79207	649.31760	707.59079	-66.67793	637.80560	594.80888	-72.23527	569.65035	579.91325	-80.00311	538.91999	717.69615	-88.79352	532.74867	603.78302	-115.73754	754.57516	735.65752	-428.24895	793.02608	605.66395	-394.49221	648.59375	699.13068	-436.38636	682.15004	577.50451	-383.53099	724.49792	911.42939	-133.48647	523.15147	938.27314	-236.34232	747.49201	912.43823	-354.58349	533.89789	934.82752	-317.50180	626.60845	1382.99074	-244.66022	673.61781	1352.22495	-104.83921	664.91715	1350.06609	-384.00793	749.28607	1311.44240	-220.16563	747.52701	1312.70912	-262.64853	717.80482	1248.17746	-48.58377	683.31242	1027.03542	-41.68482	729.03577	1047.34209	2.76755	816.93215	1011.63276	-14.53417	917.03095	910.91415	-48.33194	898.76021	893.05187	-17.58344	649.81732	1249.80176	-455.95835	571.22295	1037.25786	-433.88353	590.48475	1055.97621	-495.27553	639.48842	963.08678	-522.57173	663.66348	835.51286	-525.06880	629.88253	836.18717	-547.28500	643.02688	823.18283	-151.80740	669.48192	824.82507	-357.59709	654.76017	847.00892	-170.59858	674.00577	840.83621	-315.91375	
70	0.69000000	589.38347	467.04058	-92.00678	582.24184	392.14353	-89.93803	327.75918	178.99086	-144.73657	276.41342	206.56731	-193.95419	352.45316	60.20220	-132.10827	402.49575	51.38772	-180.03961	798.43434	465.24144	-360.72199	846.80682	389.75742	-333.70998	817.38918	84.55342	-331.51970	757.47319	49.75722	-294.46207	926.34400	43.78736	-345.85069	968.82210	63.77197	-284.94378	496.32495	319.83245	-95.62214	532.98865	448.81181	-76.17272	438.51968	380.75198	-89.99973	776.24828	394.50455	-391.52167	783.92051	272.13890	-392.48663	666.25442	708.03598	-66.33346	657.83290	594.84970	-69.78098	590.41299	577.90993	-77.35639	555.84952	714.75796	-88.83921	552.87605	600.01161	-113.48205	767.43685	737.78378	-429.00906	805.05587	607.52169	-395.00361	661.45751	701.24920	-439.27216	694.02396	579.45477	-386.10678	737.27324	912.28239	-135.79690	535.47937	939.25259	-236.40514	759.33653	914.37445	-356.42537	545.76191	936.35847	-317.61656	639.35874	1384.21438	-245.94402	686.07860	1353.65003	-105.97840	678.34683	1351.30075	-385.08755	761.84103	1312.78170	-221.14608	760.22693	1313.94308	-263.55119	728.38415	1248.92674	-48.88882	690.82642	1028.16168	-43.59078	736.13186	1047.69052	1.76288	823.54239	1010.48171	-14.28572	922.16803	907.95173	-47.07865	903.22030	890.33732	-16.46758	664.37691	1250.83615	-457.09806	585.39622	1038.65477	-435.31820	605.84607	1056.88249	-496.70011	655.12034	963.89893	-522.96053	679.16613	836.32152	-524.78189	645.70827	836.97365	-547.63019	656.13498	823.94904	-153.50795	681.14064	826.72133	-359.46521	667.72884	847.88270	-172.81564	686.10332	842.70713	-317.90846	
71	0.70000000	614.04199	465.60895	-87.39455	606.12816	390.79794	-86.32006	344.67309	188.64432	-143.97506	297.11055	220.96381	-194.04535	358.75958	67.79654	-132.16489	409.21969	54.92317	-178.53040	807.84126	465.83755	-361.38457	854.30991	389.03549	-334.68221	817.86246	84.76367	-331.42455	757.69151	49.94830	-294.48755	926.47340	43.62949	-345.93137	969.03204	62.58898	-284.88909	518.03421	321.17989	-93.12314	558.85020	448.55274	-71.50938	462.04686	383.76344	-86.70064	783.50630	395.09510	-392.20729	788.59979	272.62843	-392.97852	683.24079	708.66147	-65.90993	678.16363	595.16490	-67.28506	611.66205	576.03589	-74.67343	572.84462	711.72794	-88.60571	573.36030	596.27615	-111.06574	779.94220	739.60334	-429.68699	816.53578	608.94535	-395.62767	673.96073	703.12680	-442.13933	705.36871	581.18068	-388.55608	749.65947	913.05795	-137.95598	547.49012	940.03252	-236.28767	770.97582	916.19874	-358.11553	557.36333	937.76989	-317.54125	651.98209	1385.42043	-247.09704	698.45575	1354.93999	-107.01958	691.63373	1352.53557	-386.04002	774.25641	1313.92317	-222.04651	772.78550	1315.04433	-264.34945	738.85303	1249.55017	-49.20579	698.16603	1029.29235	-45.50199	742.96712	1048.00869	0.83476	829.77370	1009.16289	-13.89593	926.78561	904.74224	-45.63811	907.14397	887.36361	-15.12884	678.87520	1251.88275	-458.14979	599.64989	1040.01024	-436.80733	621.35115	1057.77617	-498.16561	671.04007	964.76460	-523.36904	695.13588	837.21927	-524.53979	662.02194	837.81528	-548.06110	668.95119	824.59229	-155.04701	692.54890	828.50503	-361.15498	680.41367	848.51980	-174.99084	698.01884	844.48016	-319.85882	
72	0.71000000	639.29288	464.62979	-83.12992	630.90196	389.82575	-83.24275	362.99615	198.48888	-143.48667	319.69400	234.73432	-194.74425	366.97721	76.46815	-132.17764	417.92344	59.49921	-176.62284	816.26502	466.03772	-362.04014	861.04674	388.14365	-335.94035	818.23302	84.93264	-331.31446	757.86286	50.14393	-294.51384	926.57328	43.49526	-346.01507	969.21009	61.60875	-284.86411	540.79911	322.71354	-91.12654	585.54312	448.36455	-67.10179	486.62469	386.69248	-83.38431	789.69198	395.42347	-392.74191	792.39178	272.92474	-393.33009	700.22901	709.57235	-65.45371	698.72316	595.85371	-64.81274	633.26283	574.46935	-72.07122	589.86916	708.80398	-88.11586	594.10054	592.82130	-108.61722	791.88655	740.96772	-430.35602	827.25103	609.81005	-396.41131	685.85363	704.72400	-444.71858	715.92106	582.65109	-390.64091	761.67415	913.77578	-139.83633	559.19985	940.59064	-236.04284	782.45764	917.84905	-359.60819	568.75785	939.00536	-317.34157	664.44384	1386.60461	-248.12792	710.67639	1356.08191	-107.94808	704.77105	1353.74247	-386.87468	786.51649	1314.86011	-222.84494	785.18442	1316.01298	-265.03155	749.17877	1250.03535	-49.54353	705.30888	1030.44983	-47.30878	749.56742	1048.28841	-0.01107	835.67683	1007.68857	-13.39615	930.91454	901.30611	-44.04154	910.58122	884.17066	-13.59839	693.29351	1252.91369	-459.09937	613.99389	1041.23964	-438.37987	636.95376	1058.62830	-499.64889	687.18607	965.66686	-523.80945	711.52989	838.18731	-524.36355	678.76974	838.68885	-548.55815	681.46593	825.12811	-156.36179	703.78926	830.10549	-362.59556	692.80603	848.90539	-177.02063	709.81625	846.07945	-321.70517	
